<?xml version="1.0" encoding="utf-8"?>
<!-- Generator: Adobe Illustrator 16.0.4, SVG Export Plug-In . SVG Version: 6.00 Build 0)  -->
<!DOCTYPE svg PUBLIC "-//W3C//DTD SVG 1.1//EN" "http://www.w3.org/Graphics/SVG/1.1/DTD/svg11.dtd">
<svg version="1.1" id="Layer_1" xmlns="http://www.w3.org/2000/svg" xmlns:xlink="http://www.w3.org/1999/xlink" x="0px" y="0px"
	 width="619.579px" height="136.599px" viewBox="0 0 619.579 136.599" enable-background="new 0 0 619.579 136.599"
	 xml:space="preserve">
<g>
	<path fill="#9F2969" d="M425.893,27.463c1.453,0,2.699,0.518,3.728,1.553c1.029,1.036,1.548,2.284,1.548,3.744
		c0,1.432-0.519,2.668-1.548,3.698c-1.028,1.038-2.274,1.557-3.728,1.557c-1.424,0-2.653-0.519-3.682-1.557
		c-1.035-1.03-1.544-2.266-1.544-3.698c0-1.46,0.509-2.708,1.544-3.744C423.239,27.98,424.469,27.463,425.893,27.463z"/>
	<path fill="#9C8DC2" d="M534.485,38.816c-12.74,0-17.738,5.359-19.617,8.155c-1.115-3.333-4.422-8.104-11.191-8.104
		c-3.634,0-6.674,1.21-9.035,3.598c-1.626,1.643-2.894,3.871-3.834,6.604c-0.672-0.879-1.386-1.727-2.171-2.516
		c-2.426-2.431-5.32-4.324-8.672-5.69c-3.354-1.359-7.056-2.042-11.101-2.042c-3.98,0-7.644,0.683-10.991,2.042
		c-3.354,1.366-6.245,3.259-8.675,5.69c-2.434,2.434-4.331,5.303-5.693,8.618c-1.362,3.317-2.048,6.921-2.048,10.829
		c0,3.907,0.686,7.51,2.048,10.825c1.277,3.115,3.05,5.827,5.274,8.159c-2.114,0.028-4.214-0.38-6.235-1.229
		c-4.898-2.057-8.998-6.527-11.253-12.26c-1.045-2.658-1.576-15.925-1.485-27.213l-1.597-0.015l0.003-0.016
		c0,0-3.208-0.029-4.853-0.023l-0.935-0.006c0,0.006,0,0.021,0,0.028l-0.017,0.001c0.008,0.245,0.008,0.472,0.011,0.713
		c-0.007,1.171-0.011,2.977,0.013,5.164c-0.113,6.825-0.767,12.439-1.83,17.046c-3.617,9.898-13.223,25.674-32.681,17.94
		c-2.628-1.042-4.441-2.469-6.135-4.306c-1.69-1.842-2.98-4.038-3.866-6.578c-0.884-2.541-1.324-5.285-1.324-8.23
		c0-2.946,0.44-5.69,1.324-8.234c0.886-2.537,2.176-4.729,3.866-6.569c1.693-1.841,3.737-3.278,6.135-4.312
		c2.395-1.034,5.1-1.51,8.12-1.437c2.874,0,5.434,0.663,7.678,1.99c2.245,1.325,3.994,2.946,5.249,4.863l5.967-4.532
		c-2.58-3.019-5.489-5.249-8.73-6.686c-3.237-1.437-6.63-2.191-10.163-2.263c-4.198-0.073-7.991,0.571-11.381,1.932
		c-3.387,1.364-6.28,3.259-8.672,5.69c-1.719,1.747-3.134,3.74-4.262,5.959c-1.263-2.326-2.888-4.5-4.899-6.511
		c-9.593-9.592-26.36-7.676-29.979-5.94c-1.547,0.736-7.17,2.773-10.511,6.75c-3.902,4.641-5.913,8.272-7.137,14.897l-0.013-0.024
		c-2.048,15.483-12.617,22.229-22.193,25.066c-9.168,2.719-18.011-3.909-18.63-5.878l36.554-26.762
		c-10.073-17.058-24.172-16.742-31.607-14.224c-8.211,2.78-14.001,7.596-17.08,15.396c-0.847,2.133-1.411,4.284-1.735,6.442
		l-0.017-0.014c-1.284,6.892-10.31,33.039-34.277,23.512c-2.627-1.042-4.438-2.469-6.135-4.306c-1.69-1.842-2.981-4.038-3.867-6.578
		c-0.878-2.541-1.323-5.285-1.323-8.23c0-2.946,0.445-5.69,1.323-8.234c0.886-2.537,2.177-4.729,3.867-6.569
		c1.697-1.841,3.738-3.278,6.135-4.312c2.394-1.034,5.1-1.51,8.123-1.437c2.871,0,5.43,0.663,7.676,1.99
		c2.245,1.325,3.993,2.946,5.249,4.863l5.966-4.532c-2.579-3.019-5.489-5.249-8.73-6.686c-3.238-1.437-6.627-2.191-10.161-2.263
		c-4.201-0.073-7.993,0.571-11.384,1.932c-3.387,1.364-6.28,3.259-8.671,5.69c-1.275,1.294-2.374,2.73-3.325,4.284
		c-3.344-7.087-8.918-11.906-17.109-11.906c-12.743,0-17.739,5.359-19.62,8.155c-1.113-3.333-4.418-8.104-11.189-8.104
		c-3.634,0-6.673,1.21-9.035,3.598c-1.625,1.64-2.887,3.861-3.831,6.588c-0.668-0.874-1.379-1.722-2.161-2.506
		c-2.43-2.431-5.32-4.324-8.671-5.69c-3.354-1.359-7.056-2.042-11.104-2.042c-3.978,0-7.644,0.683-10.994,2.042
		c-3.355,1.366-6.242,3.259-8.675,5.69c-2.43,2.434-4.324,5.303-5.69,8.618c-0.837,2.039-1.386,4.201-1.71,6.462l-0.026-0.031
		c-1.288,6.892-10.31,33.039-34.28,23.512c-2.625-1.042-4.438-2.469-6.131-4.306c-1.694-1.842-2.984-4.038-3.867-6.578
		c-0.882-2.541-1.324-5.285-1.324-8.23c0-2.946,0.441-5.69,1.324-8.234c0.883-2.537,2.173-4.729,3.867-6.569
		c1.693-1.841,3.737-3.278,6.131-4.312c2.397-1.034,5.103-1.51,8.123-1.437c2.871,0,5.431,0.663,7.679,1.99
		c2.245,1.325,3.994,2.946,5.249,4.863l5.962-4.532c-2.579-3.019-5.489-5.249-8.727-6.686c-3.24-1.437-6.631-2.191-10.164-2.263
		c-4.198-0.073-7.994,0.571-11.38,1.932c-3.39,1.364-6.284,3.259-8.674,5.69c-2.394,2.433-4.218,5.325-5.47,8.676
		C52.196,58.469,51.57,62.092,51.57,66c0,3.907,0.626,7.528,1.878,10.881c1.252,3.356,3.076,6.244,5.47,8.678
		c2.391,2.43,4.314,3.577,8.674,5.684c6.453,3.124,12.707,2.731,17.434,1.937c11.62-1.949,18.245-9.684,21.891-16.243
		c1.362,3.268,3.237,6.105,5.638,8.513c2.433,2.43,5.32,4.321,8.675,5.684c3.351,1.365,7.017,2.047,10.994,2.047
		c4.049,0,7.75-0.682,11.104-2.047c3.351-1.362,6.242-3.254,8.671-5.684c2.43-2.433,4.328-5.307,5.69-8.623
		c1.362-3.315,2.043-6.918,2.043-10.825c0-0.476-0.042-0.933-0.062-1.398h0.006c0.003-0.001-0.555-12.714,2.102-16.102
		c3.79-4.825,11.192-1.807,11.192,5.436v37.917h7.292V65.336c0-4.715,0.74-8.396,2.213-11.05c1.469-2.648,3.146-4.637,5.028-5.964
		c1.878-1.327,3.66-2.135,5.355-2.433c1.694-0.292,2.725-0.454,3.095-0.441c24.298,0.9,14.965,60.917-2.891,57.148l5.006,6.54
		c9.622-0.721,16.396-11.637,19.25-24.649c0.314,0.357,0.61,0.728,0.947,1.071c2.391,2.43,4.312,3.577,8.671,5.684
		c6.456,3.124,12.711,2.731,17.437,1.937c11.753-1.973,18.401-9.866,22.024-16.473c2.229,5.473,5.999,9.926,11.325,13.361
		c6.206,3.997,13.398,4.782,21.586,2.362c8.752-2.599,15.65-7.588,20.597-15.141c0.567,12.824-0.419,28.559-11.919,25.326
		l5.009,6.521c15.317-2.466,12.963-25.651,12.963-25.651c2.888,3.526,6.128,6.17,9.707,7.944c3.588,1.778,7.51,2.667,11.782,2.667
		c7.594,0,14.073-2.751,19.445-8.269c1.93-1.976,3.497-4.11,4.733-6.395c1.145,2.29,2.594,4.334,4.355,6.125
		c2.392,2.43,4.312,3.577,8.672,5.684c5.885,2.849,11.589,2.764,16.136,2.128c0.149-0.02,0.299-0.039,0.445-0.064
		c0.285-0.042,0.581-0.081,0.853-0.127c12.655-2.125,19.377-11.092,22.79-17.949c3.066,7.071,8.396,12.639,14.803,15.331
		c2.891,1.214,5.886,1.823,8.895,1.823c2.827,0,5.668-0.564,8.458-1.636c0.282,0.124,0.545,0.267,0.834,0.384
		c3.348,1.365,7.011,2.047,10.991,2.047c4.045,0,7.747-0.682,11.101-2.047c3.352-1.362,6.246-3.254,8.672-5.684
		c2.434-2.433,4.331-5.307,5.69-8.623c1.366-3.315,2.047-6.918,2.047-10.825c0-0.477-0.039-0.935-0.062-1.403h0.017
		c0.003-0.001-0.556-12.714,2.104-16.102c3.786-4.824,11.188-1.807,11.188,5.436V91.85h7.297V65.332
		c0-4.715,0.736-8.396,2.209-11.05c1.47-2.649,3.147-4.637,5.029-5.964c1.878-1.327,3.662-2.135,5.358-2.431
		c1.69-0.294,2.722-0.456,3.092-0.443c24.298,0.9,14.965,60.916-2.89,57.146l5.008,6.54
		C559.332,107.284,565.438,38.816,534.485,38.816z M150.397,74.064c-0.921,2.505-2.228,4.675-3.921,6.518
		c-1.693,1.842-3.738,3.296-6.132,4.363c-2.397,1.073-5.103,1.606-8.12,1.606c-3.021,0-5.726-0.533-8.12-1.606
		c-2.397-1.067-4.422-2.521-6.076-4.363c-1.658-1.843-2.952-4.013-3.87-6.518c-0.918-2.504-1.378-5.195-1.378-8.064
		c0-2.875,0.46-5.561,1.378-8.065c0.918-2.505,2.212-4.676,3.87-6.518c1.654-1.841,3.679-3.298,6.076-4.363
		c2.394-1.068,5.1-1.606,8.12-1.606c3.017,0,5.723,0.538,8.12,1.606c2.394,1.065,4.438,2.521,6.132,4.363s3,4.013,3.921,6.518
		c0.922,2.504,1.383,5.19,1.383,8.065C151.78,68.869,151.319,71.561,150.397,74.064z M274.413,75.482
		c-4.746-7.877-6.647-23.567,10.822-29.552c6.647-2.277,14.043-1.353,20.542,6.655L274.413,75.482z M365.047,76.786
		c-1.934,3.455-4.535,6.138-7.8,8.059c-3.267,1.924-6.75,2.887-10.462,2.887c-3.772,0-7.357-0.953-10.757-2.861
		c-3.396-1.903-6.005-4.479-7.828-7.733c-1.816-3.257-2.728-6.92-2.728-10.991c0-6.21,2.043-11.399,6.124-15.574
		c4.091-4.171,9.12-6.258,15.091-6.258c3.835,0,7.384,0.944,10.632,2.835c3.25,1.885,5.836,4.539,7.757,7.956
		c1.921,3.416,2.877,7.031,2.877,10.844C367.953,69.724,366.986,73.341,365.047,76.786z M487.037,74.064
		c-0.924,2.505-2.231,4.675-3.922,6.518c-1.692,1.842-3.74,3.296-6.135,4.363c-2.391,1.073-5.1,1.606-8.116,1.606
		c-3.023,0-5.729-0.533-8.123-1.606c-2.395-1.067-4.416-2.521-6.074-4.363c-1.66-1.843-2.951-4.013-3.869-6.518
		c-0.925-2.504-1.378-5.195-1.378-8.064c0-2.875,0.453-5.561,1.378-8.065c0.918-2.505,2.209-4.676,3.869-6.518
		c1.658-1.841,3.68-3.298,6.074-4.363c2.394-1.068,5.1-1.606,8.123-1.606c3.017,0,5.726,0.538,8.116,1.606
		c2.395,1.065,4.442,2.521,6.135,4.363c1.69,1.841,2.998,4.013,3.922,6.518c0.922,2.504,1.383,5.19,1.383,8.065
		C488.42,68.869,487.959,71.561,487.037,74.064z"/>
</g>
</svg>
